# xmcd CD database file
#
# Track frame offsets:
#	150
#	11676
#	25296
#	39724
#	60269
#	74637
#	88050
#	103677
#	122158
#	134126
#
# Disc length: 2021 seconds
#
# Revision: 0
# Processed by: cddbd v1.5.1PL0 Copyright (c) Steve Scherf et al.
# Submitted via: CDex 1.51
#
DISCID=9007e30a
DTITLE=Kelly Carmichael - Old Stock
DYEAR=2005
DGENRE=Blues
TTITLE0=County Farm Blues
TTITLE1=Evil Hearted Me
TTITLE2=I Believe I'll Dust My Broom
TTITLE3=Beulah Land
TTITLE4=Avalon Blues
TTITLE5=Hush, Hush
TTITLE6=Shame On Me
TTITLE7=Walkin' Blues
TTITLE8=Mr. Hobo
TTITLE9=I Wish I Was In Heaven Sitting Down
EXTD=YEAR: 2005
EXTT0=
EXTT1=
EXTT2=
EXTT3=
EXTT4=
EXTT5=
EXTT6=
EXTT7=
EXTT8=
EXTT9=
PLAYORDER=
